<?xml version="1.0" encoding="utf-8"?>
<!-- Generator: Adobe Illustrator 24.2.1, SVG Export Plug-In . SVG Version: 6.00 Build 0)  -->
<svg version="1.1" id="Layer_1" xmlns="http://www.w3.org/2000/svg" xmlns:xlink="http://www.w3.org/1999/xlink" x="0px" y="0px"
	 viewBox="0 0 841.9 595.3" style="enable-background:new 0 0 841.9 595.3;" xml:space="preserve">
<style type="text/css">
	.st0{fill:#FFFFFF;}
</style>
<g>
	<path class="st0" d="M229,489.3c0-128,0-256,0-384c128,0,256,0,384,0c0,128,0,256,0,384C485,489.3,357,489.3,229,489.3z
		 M235.1,393.6c60.3,0,120.2,0,180.4,0c-0.3,4.2,0.7,8.2,1.3,12.2c0.4,2.8,1.2,5.5,1.8,8.3c1.2,5.5,7.8,19.9,11.1,24.6
		c3.7,5.3,7.4,10.7,12.1,15.2c3.6,3.5,7.2,6.8,11.2,9.9c4.9,3.7,10,7,15.5,9.7c4,1.9,8,4.3,12.6,4.8c5.3,2.6,11.3,2.9,16.9,4.3
		c3.6-0.6,7,0.9,10.5,0.7c3.2-0.1,6.3,0.2,9.4-0.7c1.8-0.5,4.1,0.2,5.8-0.5c1.8-0.7,3.7-0.2,5.6-0.9c2-0.8,4.3-0.9,6.4-1.6
		c2.2-0.8,4.4-1.3,6.6-2.1c2.6-1,5.1-2.2,7.7-3.1c2.7-0.9,5-2.5,7.4-3.8c5.5-2.9,10.5-6.4,15.1-10.4c5-4.3,9.8-9.1,13.8-14.5
		c1.4-1.9,2.9-3.8,4.1-5.8c2.6-4.8,5.7-9.2,7.7-14.4c1.9-5.1,3.7-10.2,5.2-15.4c1-3.3,1-6.7,2.1-10c0.5-1.5,0-3.2,0.1-4.8
		c0.1-1.5,0.7-3,0.7-4.6c-0.1-3.5,0.4-7-0.6-10.6c-0.7-2.3-0.3-4.7-0.7-7.2c-0.7-4.7-1.7-9.2-3.1-13.7c-1.4-4.5-3-9-5.1-13.2
		c-1.6-3.3-3.4-6.3-5.4-9.4c-3.5-5.6-7.4-10.9-12.1-15.6c-2.9-2.8-5.8-5.6-8.7-8.3c0-39.2,0-78.4,0-117.6c1.4-0.3,2.7-0.6,3.9-0.9
		c3.6-0.9,6.9-2.5,10.3-4.1c1.9-1,3.4-2.5,5.3-3.4c1.4-0.7,6.7-6.9,8-8.5c2.1-2.7,3.7-5.6,5-8.8c1.8-4.3,2.5-8.8,3.1-13.3
		c0.3-2.1,0.7-4.5-0.1-6.3c-0.9-2,0.3-4.2-1.3-5.8c-0.9-5.9-3.5-11.2-7.3-15.6c-4.7-5.6-10.1-10.5-17.3-13.2
		c-4.7-1.7-9.4-2.8-14.4-3.2c-2.4-0.2-4.8,0.3-7.2,0.6c-5,0.6-9.5,2.3-13.9,4.4c-4.4,2.1-7.9,5.5-11.3,9c-4.2,4.3-6.9,9.4-8.8,15.1
		c-0.6,1.7-0.9,3.4-1.3,5c-0.7,2.5-0.7,5.2-1.1,7.9c-95.8,0-191.4,0-287.1,0C235.1,233.8,235.1,313.5,235.1,393.6z"/>
	<path d="M235.1,393.6c0-80.1,0-159.7,0-239.5c95.7,0,191.4,0,287.1,0c0.3-2.7,0.4-5.4,1.1-7.9c0.4-1.7,0.8-3.4,1.3-5
		c1.9-5.7,4.6-10.8,8.8-15.1c3.4-3.5,6.8-6.9,11.3-9c4.4-2.1,8.9-3.9,13.9-4.4c2.4-0.3,4.8-0.8,7.2-0.6c4.9,0.4,9.6,1.5,14.4,3.2
		c7.3,2.6,12.6,7.6,17.3,13.2c3.8,4.4,6.4,9.7,7.3,15.6c1.7,1.6,0.4,3.9,1.3,5.8c0.8,1.7,0.4,4.2,0.1,6.3c-0.6,4.5-1.3,9-3.1,13.3
		c-1.4,3.1-3,6.1-5,8.8c-1.3,1.7-6.6,7.9-8,8.5c-1.9,0.9-3.4,2.5-5.3,3.4c-3.3,1.6-6.7,3.2-10.3,4.1c-1.3,0.3-2.5,0.6-3.9,0.9
		c0,39.2,0,78.4,0,117.6c2.9,2.7,5.8,5.5,8.7,8.3c4.7,4.6,8.6,10,12.1,15.6c1.9,3.1,3.8,6.1,5.4,9.4c2.1,4.3,3.7,8.7,5.1,13.2
		c1.4,4.5,2.4,9,3.1,13.7c0.4,2.4,0,4.9,0.7,7.2c1,3.5,0.5,7.1,0.6,10.6c0,1.5-0.6,3-0.7,4.6c-0.1,1.6,0.4,3.4-0.1,4.8
		c-1.1,3.3-1.1,6.7-2.1,10c-1.5,5.2-3.3,10.3-5.2,15.4c-2,5.2-5,9.7-7.7,14.4c-1.1,2-2.6,3.9-4.1,5.8c-4,5.3-8.8,10.1-13.8,14.5
		c-4.6,4-9.6,7.5-15.1,10.4c-2.5,1.3-4.8,2.8-7.4,3.8c-2.6,0.9-5.1,2.1-7.7,3.1c-2.2,0.8-4.4,1.3-6.6,2.1c-2.1,0.8-4.5,0.9-6.4,1.6
		c-1.9,0.7-3.7,0.2-5.6,0.9c-1.7,0.7-4-0.1-5.8,0.5c-3.1,0.9-6.3,0.6-9.4,0.7c-3.5,0.1-7-1.3-10.5-0.7c-5.6-1.5-11.6-1.8-16.9-4.3
		c-4.6-0.5-8.6-2.8-12.6-4.8c-5.5-2.7-10.6-6-15.5-9.7c-4-3-7.7-6.4-11.2-9.9c-4.7-4.6-8.3-9.9-12.1-15.2
		c-3.3-4.7-9.9-19.1-11.1-24.6c-0.6-2.8-1.3-5.5-1.8-8.3c-0.6-4-1.6-8-1.3-12.2C355.3,393.6,295.3,393.6,235.1,393.6z M415.6,381.4
		c-1-4.2,1.1-7.9,0.4-12c-4.5,0-8.8,0-13.2,0c0-24,0-47.9,0-71.7c12,0,23.8,0,35.9,0c0,8.8,0,17.4,0,26.2c3.6-3,6.4-6.5,9.9-9.2
		c2.6-2,5-4.1,7.7-6c6.4-4.5,13.2-8.2,20.6-10.8c3.7-1.3,7.4-2.8,11.3-3.5c2.7-0.4,5.4-0.9,8-1.5c2.5-0.6,4.9,0,7.2-0.7
		c2.6-0.8,5-0.6,7.6-0.6c2.5,0,5,0.3,7.6,0.6c3.8,0.4,7.6,0.8,11.3,1.6c1.7,0.4,3.5,0.5,5.2,1c6.3,2,12.5,4.2,18.3,7.2
		c1.5,0.8,3,1.6,4.8,2.6c0-36.7,0-73.1,0-109.4c-6.8-1.1-13-3.7-18.3-7.6c-12.3,12.3-24.5,24.5-36.9,36.9c0.4,1.8,1.3,3.9,1.4,6.1
		c0.1,2.2-0.5,4.5-0.7,6.6c-0.5,0.8-1,1.4-1.3,2.2c-2.4,6.3-10,10.2-16.2,10.2c-1.4,0-2.5-0.6-3.8-0.8c-2.5-0.3-4.7-1.6-6.6-3.1
		c-2.7-2-4.8-4.7-5.9-8c-0.8-2.8-2.1-5.5-0.8-8.6c0.7-1.7,0.7-3.7,0.9-5.1c-4.1-4.1-8-8-12-12c-1.5,0.3-3.2,0.5-4.9,1.1
		c-1.8,0.6-3.3,0.7-5.1-0.1c-1.5-0.7-3.5-0.6-4.9-0.7c-10,10-19.9,19.9-29.7,29.7c0.2,1.5,0.1,3.3,0.7,4.8c0.8,1.8,0.8,3.4,0.2,5.2
		c-0.6,1.7-0.6,3.6-1.5,5.4c-1.1,2.1-2.5,3.8-4.1,5.4c-3.1,3-6.9,4.3-11.1,4.8c-1.7,0.2-3.3-0.2-5-0.6c-2.5-0.6-4.7-1.6-6.6-3.1
		c-3.4-2.8-6.2-6-6.5-10.7c-1.9-3.2-0.7-6.4,0.4-9.3c1.8-5.2,5.5-9.1,10.9-11c2.5-0.9,5.1-1.7,7.7-1c1,0.3,2,0.5,3.1,0.6
		c1,0.2,2,0.6,2.9,0.8c9.9-9.9,19.7-19.7,29.5-29.5c0.1-0.1,0.1-0.2,0.2-0.3c0-0.2,0.1-0.5,0-0.7c-0.9-3.6-1.9-7.1-0.9-11.1
		c1.2-4.6,4-7.8,7.3-10.8c0.8-0.7,7.1-2.8,8.1-3c2.6-0.5,5.2,0.2,7.5,0.9c3.8,1.2,7.2,3.7,9.4,7c2.1,3.2,3.1,7.1,3.1,11
		c0,0.4,0,0.9-0.2,1c-1,0.8-0.3,1.9-0.6,2.8c-0.2,1-0.6,2-0.8,2.8c4,4.1,7.9,7.9,11.8,11.8c2.5-0.5,5.1-1.4,7.6-1.4
		c2.7,0,5.3,0.9,7.7,1.3c12.3-12.3,24.4-24.4,36.7-36.7c-2.6-3.8-5-7.9-6.2-12.5c-14.7-0.6-274-0.3-277.3,0.2
		c0,71.7,0,143.4,0,215.2C303.2,381.4,359.2,381.4,415.6,381.4z M440.8,434.5c2.7,3.4,5.4,6.9,8.3,10.2c3.4,3.8,7.4,7.1,11.5,10.1
		c4.3,3.2,8.8,6.1,13.7,8.4c1.9,0.9,3.7,2.1,5.7,2.6c4,0.9,7.6,2.7,11.7,3.4c3.8,0.7,7.7,1.7,11.5,1.9c7.5,0.4,15.1,0.7,22.6-1.3
		c1.6-0.4,3.3-0.4,4.9-0.8c1.7-0.4,3.4-0.9,5-1.5c3.6-1.3,7.2-2.5,10.7-4.1c2-0.9,3.9-2.2,5.8-3.3c6.7-3.6,12.5-8.3,17.9-13.6
		c2-2,3.6-4.3,5.6-6.3c1.8-1.9,3.2-3.9,4.4-6.1c-7.3-3.7-13.9-8.3-21.1-11.9c-7.8,10.7-17.8,18.1-30,21.9c-13.8,4.4-23.3,4.3-37.1,0
		c-12.1-3.8-22.1-11.4-29.8-22C454.8,426.4,447.8,430.4,440.8,434.5z M455.9,411.8c-0.7-2.7-2.4-4.9-2.4-7.5
		c-2.4-5-2.2-10.4-2.9-15.6c-0.3-2-0.3-4.3,0.3-6.2c0.7-2.1,0.1-4.2,1-6.3c0.8-1.8,1-4.1,1.5-6.1c1.1-4.3,3.5-8,5.3-12
		c1.4-3.2,3.5-6,5.7-8.4c3.2-3.5,6.6-7,10.4-9.9c4.5-3.5,9.7-5.6,14.7-8.1c1.6-0.8,3.7-1.3,5.7-1.7c3.1-0.6,6.2-1.5,9.2-1.5
		c0-8.3,0-16.4,0-24.6c-1.6,0.3-3.1,0.8-4.6,0.7c-1.7-0.1-3.3,0.6-4.9,0.8c-2.9,0.4-5.7,1.3-8.5,2.1c-3.9,1.1-7.6,2.8-11.3,4.4
		c-3.3,1.5-6.4,3.3-9.5,5.1c-3.3,2-6.1,4.5-9.2,6.8c-4.9,3.6-8.7,8.2-12.4,12.8c-2.5,3.1-4.5,6.5-6.6,10c-2.3,3.8-4.1,7.8-5.5,11.9
		c-1.2,3.6-2.4,7.2-3.3,11c-0.8,3.7-1.6,7.5-1.8,11.1c-0.2,5.7-0.7,11.5,0.5,17.3c0.6,2.9,1,5.8,1.6,8.7c1.2,6.2,3.5,12.1,6.4,17.7
		c3.6-2,7.1-3.8,10.4-5.9C449,415.9,453,414.6,455.9,411.8z M516.6,303.5c0,8.6,0,16.6,0,24.8c1.9,0.2,3.6,0.2,5.4,0.7
		c4,1.1,6.7,1.1,13.5,4.5c3.3,1.7,6.7,3.2,9.8,5.3c4.1,3,7.5,6.7,11,10.4c1.4,1.4,2.3,3.3,3.6,4.8c2.7,3.3,4.1,7.3,5.9,11
		c3,6.2,3.6,13.1,4.5,19.8c0.6,4.1-1,8-0.8,12c-1,1.4-0.4,3.1-0.9,4.5c-1.1,3.5-2.4,7-3.8,10.7c6.9,4,13.9,8,20.8,12
		c1.5-3.3,2.9-6.4,4.1-9.7c1.2-3.1,1.7-6.3,2.7-9.3c1-3.1,0.9-6.5,1.6-9.8c0.6-2.8-0.2-17.8-0.7-21.4c0-0.1,0-0.3,0-0.4
		c-1.4-2.5-1.4-5.4-2.1-8.1c-1.3-4.8-3-9.5-5-14c-3.3-7.2-8-13.6-13-19.7c-4.2-5.1-9.3-9.4-14.8-13.1c-4.6-3.1-9.3-6.2-14.6-8.1
		c-4-1.4-8-3-12.1-4.2C526.9,305,521.7,304.8,516.6,303.5z M462.6,387.1c-0.8,9.3,2.4,17.4,6.7,25.1c3.9,6.9,9.5,12.4,16.4,16.4
		c6.6,3.9,13.7,6.5,21.5,6.8c4.5,0.2,9.1,0,13.5-0.8c2.4-0.4,4.7-1.3,6.9-2.2c2.2-0.9,4.5-1.9,6.5-3.1c2.3-1.3,4.5-2.9,6.7-4.5
		c0.8-0.6,1.5-1.4,2.1-2.1c2.3-2.5,4.8-4.9,6.8-7.7c1.7-2.4,2.8-5.3,4.3-7.9c1.5-2.6,2-5.7,3.2-8.4c0.7-1.7-0.2-3.6,1-5.2
		c0.4-0.6,0-1.7,0.1-2.6c0.8-13.7-3.4-25.8-12.7-35.9c-8.4-9.1-18.9-14.3-31.4-15.4c-10.3-0.9-19.7,1.6-28.6,6.7
		c-6.4,3.7-12.5,10.2-18.2,19.5C464.8,372.7,461.8,379.6,462.6,387.1z M556.3,183.1c1-0.1,2.5,0.6,3.9,0.6c3.5,0.1,7,0.4,10.6-0.5
		c4.1-1,11-4,13.6-7c1-1.1,2.2-2,3.1-3.2c1.6-2.2,3.6-4.3,4.4-6.8c1.4-4.2,2.7-8.6,2.5-13.3c-0.2-5.1-1.6-9.7-3.9-14.1
		c-2-3.9-5.3-6.8-8.6-9.5c-1.8-1.4-3.8-3.1-6.5-3.2c-0.8,0-1.6-0.9-2.1-1.1c-6.1-1.5-11.9-1.5-17-0.2c-5.4,1.9-9.8,4.3-13.4,8.1
		c-3.7,3.8-6.3,8.3-7.7,13.3c-1.4,5.1-1.4,10.4,0,15.4c1.4,5,3.9,9.5,7.7,13.3C546.7,178.7,551,181,556.3,183.1z M414.8,309.8
		c0,15.8,0,31.7,0,47.6c1.7,0,3.3,0,4.8,0c2.2-5.2,3.7-10.8,6.9-15.4c0-10.8,0-21.6,0-32.4c-3.8,0-7.4,0-11,0
		C415.3,309.6,415.1,309.7,414.8,309.8z M456.6,197.2c0.8-4.9-2.9-8.2-8-7.3c-3.9,2.4-4.2,3-4,7c0.7,3,2.4,4,4.2,4.8
		C452.4,202.2,455.1,201.1,456.6,197.2z M480.5,233.7c2.5,3.9,2.9,4.2,7.9,4c2.4-1.5,2.4-1.5,4-4.2c0.5-3.6-0.6-6.3-4.8-7.8
		C483.4,224.9,479.7,228.2,480.5,233.7z M398.1,243.8c-0.9,0-2.1,0-3,0c-4,1.5-5,4.3-4.4,7.9c0.6,2.2,2.3,3.2,4,4.1
		c1.4,0,2.6,0,4.2,0c1.2-1.2,2.5-2.5,3.5-3.5C403.1,248.1,402.1,245.3,398.1,243.8z"/>
	<path class="st0" d="M415.6,381.4c-56.5,0-112.4,0-168.5,0c0-71.8,0-143.4,0-215.2c3.3-0.6,262.7-0.8,277.3-0.2
		c1.3,4.6,3.6,8.8,6.2,12.5c-12.3,12.3-24.4,24.4-36.7,36.7c-2.3-0.4-5-1.3-7.7-1.3c-2.5,0-5.1,0.9-7.6,1.4
		c-3.9-3.9-7.7-7.8-11.8-11.8c0.3-0.8,0.6-1.8,0.8-2.8c0.2-0.9-0.4-2,0.6-2.8c0.2-0.2,0.2-0.7,0.2-1c0-4-1-7.8-3.1-11
		c-2.2-3.3-5.5-5.9-9.4-7c-2.3-0.7-4.9-1.4-7.5-0.9c-1,0.2-7.3,2.3-8.1,3c-3.2,3-6.1,6.2-7.3,10.8c-1,4,0,7.4,0.9,11.1
		c0.1,0.2,0,0.5,0,0.7c-0.1,0.1-0.1,0.2-0.2,0.3c-9.8,9.8-19.6,19.6-29.5,29.5c-0.9-0.3-1.9-0.7-2.9-0.8c-1-0.2-2.1-0.4-3.1-0.6
		c-2.6-0.7-5.2,0.1-7.7,1c-5.3,1.9-9.1,5.7-10.9,11c-1,2.9-2.3,6.2-0.4,9.3c0.3,4.7,3.1,8,6.5,10.7c1.8,1.5,4.1,2.5,6.6,3.1
		c1.7,0.4,3.3,0.8,5,0.6c4.2-0.5,8-1.7,11.1-4.8c1.6-1.6,3-3.3,4.1-5.4c0.9-1.8,0.9-3.6,1.5-5.4c0.6-1.8,0.6-3.3-0.2-5.2
		c-0.7-1.4-0.5-3.3-0.7-4.8c9.9-9.9,19.7-19.7,29.7-29.7c1.4,0.2,3.3,0,4.9,0.7c1.8,0.8,3.3,0.7,5.1,0.1c1.7-0.5,3.4-0.8,4.9-1.1
		c4,4,7.9,7.9,12,12c-0.2,1.4-0.2,3.4-0.9,5.1c-1.2,3.1,0,5.8,0.8,8.6c1,3.3,3.2,6,5.9,8c1.9,1.5,4,2.8,6.6,3.1
		c1.3,0.2,2.4,0.8,3.8,0.8c6.2,0,13.9-4,16.2-10.2c0.3-0.8,0.8-1.4,1.3-2.2c0.3-2.1,0.9-4.4,0.7-6.6c-0.1-2.2-1-4.3-1.4-6.1
		c12.4-12.4,24.6-24.6,36.9-36.9c5.3,3.9,11.4,6.5,18.3,7.6c0,36.4,0,72.7,0,109.4c-1.8-0.9-3.3-1.8-4.8-2.6
		c-5.9-3-12.1-5.2-18.3-7.2c-1.7-0.5-3.5-0.7-5.2-1c-3.7-0.8-7.5-1.3-11.3-1.6c-2.5-0.3-5-0.6-7.6-0.6c-2.5,0-5-0.2-7.6,0.6
		c-2.3,0.7-4.7,0.1-7.2,0.7c-2.6,0.7-5.3,1.1-8,1.5c-4,0.7-7.6,2.2-11.3,3.5c-7.4,2.6-14.2,6.3-20.6,10.8c-2.6,1.9-5.1,4-7.7,6
		c-3.6,2.7-6.3,6.2-9.9,9.2c0-8.8,0-17.5,0-26.2c-12.1,0-23.9,0-35.9,0c0,23.8,0,47.7,0,71.7c4.4,0,8.7,0,13.2,0
		C416.7,373.5,414.6,377.2,415.6,381.4z M390.6,369.4c0-32.1,0-63.9,0-95.6c-11.3-0.5-32.8-0.3-35.7,0.3c0,31.8,0,63.5,0,95.4
		C366.8,369.4,378.6,369.4,390.6,369.4z M294.8,309.8c-12.1,0-23.9,0-35.7,0c-0.5,12.6-0.3,56.5,0.2,59.6c11.8,0,23.6,0,35.5,0
		C294.8,349.5,294.8,329.7,294.8,309.8z M342.7,321.7c-12.1,0-23.9,0-35.7,0c-0.5,10.9-0.3,44.6,0.2,47.7c11.8,0,23.6,0,35.5,0
		C342.7,353.5,342.7,337.7,342.7,321.7z M283,189.7c28.1,0,55.9,0,83.8,0c0-2.1,0-4.1,0-6c0-1.9,0.1-3.9,0-5.7
		c-28.1,0-55.9,0-83.7,0C283,182,283,185.8,283,189.7z M366.7,202c-28.1,0-55.8,0-83.8,0c0,2.1,0,4.1,0,6c0,1.9-0.1,3.9,0.1,5.7
		c28.1,0,55.8,0,83.7,0C366.7,209.8,366.7,205.9,366.7,202z M366.6,237.7c0-4.2,0-8,0-11.8c-13.6-0.5-80.4-0.3-83.6,0.2
		c0,3.9,0,7.7,0,11.6C310.9,237.7,338.7,237.7,366.6,237.7z M366.7,249.9c-28.1,0-55.9,0-83.8,0c0,2.1,0,4.1,0,6.1
		c0,1.9-0.1,3.9,0,5.7c28.1,0,55.9,0,83.7,0C366.7,257.6,366.7,253.8,366.7,249.9z M270.8,189.8c0-4.2,0-8,0-11.9
		c-2.1,0-4.1,0-6.1,0c-1.9,0-3.9-0.2-5.7,0.1c0,4.1,0,7.9,0,11.8C263,189.8,266.8,189.8,270.8,189.8z M259.1,201.9c0,4.2,0,8,0,11.9
		c2.1,0,4.1,0,6.1,0c1.9,0,3.9,0.1,5.7,0c0-4.2,0-8,0-11.9C266.8,201.9,263,201.9,259.1,201.9z M270.9,237.8c0-1.9,0-3.9,0-5.8
		c0-2.1,0.1-4.1,0-6c-4.2,0-8,0-11.9,0c0,2.1,0,4.1,0,6.1c0,1.9-0.1,3.9,0.1,5.8C263.1,237.8,266.8,237.8,270.9,237.8z M259,261.6
		c4.1,0,8,0,11.9,0c0-2.1,0-4.1,0-6c0-1.9,0.2-3.9-0.1-5.7c-4.1,0-7.9,0-11.8,0C259,253.8,259,257.6,259,261.6z"/>
	<path class="st0" d="M440.8,434.5c7.1-4.1,14-8.1,21.2-12.2c7.7,10.6,17.6,18.1,29.8,22c13.8,4.4,23.3,4.4,37.1,0
		c12.2-3.9,22.2-11.2,30-21.9c7.2,3.6,13.8,8.2,21.1,11.9c-1.2,2.2-2.6,4.3-4.4,6.1c-2,2-3.6,4.3-5.6,6.3
		c-5.4,5.3-11.2,10-17.9,13.6c-1.9,1-3.8,2.4-5.8,3.3c-3.5,1.5-7.1,2.8-10.7,4.1c-1.6,0.6-3.3,1.1-5,1.5c-1.6,0.4-3.3,0.4-4.9,0.8
		c-7.4,2.1-15.1,1.7-22.6,1.3c-3.8-0.2-7.7-1.2-11.5-1.9c-4.1-0.7-7.8-2.5-11.7-3.4c-2-0.5-3.8-1.7-5.7-2.6
		c-4.9-2.3-9.4-5.2-13.7-8.4c-4.1-3.1-8.1-6.3-11.5-10.1C446.1,441.4,443.5,437.8,440.8,434.5z"/>
	<path class="st0" d="M455.9,411.8c-2.9,2.8-6.8,4.1-10.2,6.4c-3.3,2.2-6.8,3.9-10.4,5.9c-2.9-5.6-5.2-11.5-6.4-17.7
		c-0.6-2.9-1-5.8-1.6-8.7c-1.2-5.8-0.7-11.6-0.5-17.3c0.1-3.7,1-7.4,1.8-11.1c0.8-3.8,2-7.4,3.3-11c1.4-4.2,3.2-8.1,5.5-11.9
		c2-3.4,4.1-6.9,6.6-10c3.7-4.6,7.5-9.2,12.4-12.8c3.1-2.2,5.9-4.8,9.2-6.8c3.1-1.8,6.1-3.7,9.5-5.1c3.7-1.6,7.4-3.3,11.3-4.4
		c2.8-0.8,5.6-1.7,8.5-2.1c1.6-0.2,3.2-0.8,4.9-0.8c1.5,0,3-0.4,4.6-0.7c0,8.2,0,16.3,0,24.6c-3.1,0-6.1,0.9-9.2,1.5
		c-2,0.4-4,0.9-5.7,1.7c-5,2.5-10.2,4.6-14.7,8.1c-3.8,3-7.2,6.4-10.4,9.9c-2.3,2.5-4.3,5.2-5.7,8.4c-1.8,4-4.2,7.7-5.3,12
		c-0.5,2-0.7,4.3-1.5,6.1c-0.9,2.1-0.2,4.2-1,6.3c-0.7,1.9-0.6,4.2-0.3,6.2c0.7,5.3,0.5,10.7,2.9,15.6
		C453.4,406.9,455.2,409,455.9,411.8z"/>
	<path class="st0" d="M516.6,303.5c5.2,1.3,10.3,1.5,15.3,2.9c4.1,1.2,8.1,2.8,12.1,4.2c5.3,1.9,10,4.9,14.6,8.1
		c5.4,3.7,10.5,8,14.8,13.1c5,6.1,9.7,12.4,13,19.7c2,4.5,3.8,9.2,5,14c0.7,2.7,0.7,5.6,2.1,8.1c0.1,0.1,0,0.2,0,0.4
		c0.5,3.6,1.3,18.6,0.7,21.4c-0.7,3.3-0.6,6.7-1.6,9.8c-1,3.1-1.5,6.3-2.7,9.3c-1.3,3.2-2.7,6.4-4.1,9.7c-6.9-4-13.9-8-20.8-12
		c1.4-3.8,2.7-7.2,3.8-10.7c0.4-1.4-0.1-3.1,0.9-4.5c-0.2-4,1.3-8,0.8-12c-0.9-6.7-1.6-13.6-4.5-19.8c-1.8-3.8-3.3-7.7-5.9-11
		c-1.3-1.6-2.2-3.4-3.6-4.8c-3.5-3.6-6.9-7.4-11-10.4c-3-2.2-6.4-3.7-9.8-5.3c-6.8-3.4-9.5-3.4-13.5-4.5c-1.8-0.5-3.5-0.5-5.4-0.7
		C516.6,320.2,516.6,312.1,516.6,303.5z"/>
	<path class="st0" d="M462.6,387.1c-0.9-7.5,2.2-14.4,4.8-21.3c5.7-9.3,11.8-15.8,18.2-19.5c8.9-5.1,18.4-7.6,28.6-6.7
		c12.4,1.1,23,6.3,31.4,15.4c9.3,10.1,13.5,22.1,12.7,35.9c-0.1,0.9,0.3,2-0.1,2.6c-1.2,1.7-0.3,3.6-1,5.2c-1.2,2.7-1.7,5.8-3.2,8.4
		c-1.5,2.6-2.6,5.5-4.3,7.9c-2,2.8-4.5,5.1-6.8,7.7c-0.7,0.7-1.3,1.5-2.1,2.1c-2.2,1.6-4.4,3.1-6.7,4.5c-2.1,1.2-4.3,2.2-6.5,3.1
		c-2.2,0.9-4.6,1.8-6.9,2.2c-4.5,0.8-9,1-13.5,0.8c-7.8-0.3-14.9-2.9-21.5-6.8c-6.8-4-12.4-9.5-16.4-16.4
		C465,404.5,461.9,396.4,462.6,387.1z M510.4,423.5c2.5-0.3,5-0.3,7.5-0.9c1.1-0.3,2.3-0.4,3.4-0.7c1.9-0.6,3.7-1.4,5.4-2.3
		c2-1.1,4-2.4,5.9-3.7c0.8-0.6,1.4-1.4,2.1-2.1c1.3-1.3,2.8-2.5,3.9-4c1.4-1.9,2.6-3.9,3.7-5.9c0.9-1.7,1.8-3.5,2.4-5.4
		c0.8-2.6,0.6-5.4,1.6-8c0.3-0.8,0.1-1.7,0-2.6c-0.4-9.4-3.3-17.8-9.8-24.7c-7-7.5-15.8-11.3-25.9-11.4c-9.2-0.1-17.5,3.1-24.4,9.5
		c-7.7,7.1-11.3,15.9-11.7,26.2c-0.2,5,2.1,13.6,4.5,17.6c3.5,5.8,8.2,10.7,14.2,14C498.5,421.8,504.4,423,510.4,423.5z"/>
	<path class="st0" d="M556.3,183.1c-5.3-2.1-9.6-4.4-13.4-8.1c-3.8-3.8-6.3-8.3-7.7-13.3c-1.4-5.1-1.4-10.4,0-15.4
		c1.4-5,4-9.5,7.7-13.3c3.7-3.8,8-6.2,13.4-8.1c5.1-1.2,10.9-1.2,17,0.2c0.4,0.3,1.2,1.1,2.1,1.1c2.7,0.1,4.7,1.8,6.5,3.2
		c3.3,2.7,6.6,5.6,8.6,9.5c2.3,4.4,3.7,9,3.9,14.1c0.2,4.7-1.1,9-2.5,13.3c-0.8,2.5-2.8,4.6-4.4,6.8c-0.9,1.2-2.2,2.1-3.1,3.2
		c-2.6,3-9.4,6-13.6,7c-3.6,0.9-7.1,0.7-10.6,0.5C558.8,183.7,557.3,183,556.3,183.1z"/>
	<path class="st0" d="M414.8,309.8c0.3-0.1,0.5-0.2,0.8-0.2c3.6,0,7.2,0,11,0c0,10.8,0,21.6,0,32.4c-3.2,4.6-4.6,10.2-6.9,15.4
		c-1.6,0-3.1,0-4.8,0C414.8,341.5,414.8,325.7,414.8,309.8z"/>
	<path class="st0" d="M456.6,197.2c-1.5,4-4.2,5.1-7.8,4.6c-1.7-0.8-3.4-1.8-4.2-4.8c-0.2-4.1,0.1-4.6,4-7
		C453.7,189,457.4,192.3,456.6,197.2z"/>
	<path class="st0" d="M480.5,233.7c-0.9-5.5,2.9-8.8,7.1-8c4.1,1.6,5.2,4.3,4.8,7.8c-1.6,2.7-1.6,2.7-4,4.2
		C483.5,237.8,483,237.6,480.5,233.7z"/>
	<path class="st0" d="M398.1,243.8c4,1.5,5,4.3,4.3,8.5c-1,1-2.3,2.3-3.5,3.5c-1.6,0-2.8,0-4.2,0c-1.7-0.8-3.4-1.9-4-4.1
		c-0.6-3.5,0.4-6.3,4.4-7.9C396,243.8,397.3,243.8,398.1,243.8z"/>
	<path d="M390.6,369.4c-11.9,0-23.7,0-35.7,0c0-31.8,0-63.6,0-95.4c2.9-0.6,24.4-0.7,35.7-0.3C390.6,305.6,390.6,337.3,390.6,369.4z
		 M378.6,357.5c0-23.9,0-47.8,0-71.7c-4,0-7.8,0-11.7,0c0,23.9,0,47.8,0,71.7C370.8,357.5,374.7,357.5,378.6,357.5z"/>
	<path d="M294.8,309.8c0,19.9,0,39.7,0,59.6c-11.9,0-23.7,0-35.5,0c-0.6-3.1-0.8-47-0.2-59.6C270.9,309.8,282.7,309.8,294.8,309.8z
		 M271,321.7c0,12,0,23.9,0,35.8c4,0,7.8,0,11.7,0c0-12,0-23.9,0-35.8C278.8,321.7,275,321.7,271,321.7z"/>
	<path d="M342.7,321.7c0,15.9,0,31.7,0,47.7c-11.9,0-23.7,0-35.5,0c-0.5-3-0.7-36.7-0.2-47.7C318.8,321.7,330.6,321.7,342.7,321.7z
		 M319,333.6c0,8.1,0,16,0,23.9c2.1,0,4.1,0,6.1,0c1.9,0,3.9,0.1,5.7,0c0-8.2,0-16,0-23.8C326.7,333.6,322.9,333.6,319,333.6z"/>
	<path d="M283,189.7c0-4,0-7.8,0-11.7c27.8,0,55.6,0,83.7,0c0.1,1.8,0,3.7,0,5.7c0,2,0,4,0,6C338.8,189.7,311.1,189.7,283,189.7z"/>
	<path d="M366.7,202c0,4,0,7.8,0,11.8c-27.8,0-55.6,0-83.7,0c-0.2-1.8-0.1-3.8-0.1-5.7c0-2,0-4,0-6C310.8,202,338.6,202,366.7,202z"
		/>
	<path d="M366.6,237.7c-27.9,0-55.7,0-83.6,0c0-3.9,0-7.7,0-11.6c3.2-0.6,69.9-0.8,83.6-0.2C366.6,229.7,366.6,233.6,366.6,237.7z"
		/>
	<path d="M366.7,249.9c0,3.9,0,7.8,0,11.7c-27.8,0-55.6,0-83.7,0c-0.1-1.8,0-3.7,0-5.7c0-2,0-4,0-6.1
		C310.8,249.9,338.6,249.9,366.7,249.9z"/>
	<path d="M270.8,189.8c-3.9,0-7.8,0-11.7,0c0-3.9,0-7.7,0-11.8c1.8-0.2,3.7-0.1,5.7-0.1c2,0,3.9,0,6.1,0
		C270.8,181.8,270.8,185.6,270.8,189.8z"/>
	<path d="M259.1,201.9c3.9,0,7.8,0,11.7,0c0,3.9,0,7.7,0,11.9c-1.8,0.1-3.7,0-5.7,0c-2,0-4,0-6.1,0
		C259.1,209.9,259.1,206.1,259.1,201.9z"/>
	<path d="M270.9,237.8c-4.1,0-7.8,0-11.9,0c-0.1-1.9,0-3.9-0.1-5.8c0-2,0-4,0-6.1c3.9,0,7.7,0,11.9,0c0.1,1.9,0,4,0,6
		C270.9,233.9,270.9,235.8,270.9,237.8z"/>
	<path d="M259,261.6c0-4,0-7.8,0-11.7c3.9,0,7.7,0,11.8,0c0.2,1.8,0.1,3.7,0.1,5.7c0,2,0,3.9,0,6C267,261.6,263.2,261.6,259,261.6z"
		/>
	<path d="M510.4,423.5c-6.1-0.5-11.9-1.7-17.3-4.6c-6-3.3-10.6-8.2-14.2-14c-2.4-3.9-4.7-12.6-4.5-17.6c0.4-10.2,4-19.1,11.7-26.2
		c6.9-6.4,15.2-9.6,24.4-9.5c10.1,0.1,18.9,3.9,25.9,11.4c6.5,7,9.4,15.4,9.8,24.7c0,0.9,0.2,1.8,0,2.6c-0.9,2.6-0.8,5.4-1.6,8
		c-0.6,1.9-1.4,3.7-2.4,5.4c-1.1,2-2.3,4.1-3.7,5.9c-1.1,1.5-2.6,2.7-3.9,4c-0.7,0.7-1.3,1.5-2.1,2.1c-1.9,1.3-3.9,2.6-5.9,3.7
		c-1.7,0.9-3.5,1.8-5.4,2.3c-1.1,0.3-2.3,0.5-3.4,0.7C515.5,423.2,512.9,423.2,510.4,423.5z M511.6,411.5c3.1,0.4,7.1-1.2,10.8-3.1
		c3.8-2,6.9-5,8.9-8.8c1.7-3.1,3-6.5,3.1-10.3c0.3-7.2-1.7-13.4-6.7-18.6c-4.3-4.4-9.5-6.9-15.7-7.3c-7.2-0.4-13.4,1.7-18.5,6.8
		c-4.4,4.3-6.8,9.5-7.1,15.7c-0.4,7.2,1.9,13.3,6.9,18.5C498,409.2,503.7,411.5,511.6,411.5z"/>
	<path class="st0" d="M378.6,357.5c-3.9,0-7.8,0-11.7,0c0-23.9,0-47.8,0-71.7c3.9,0,7.8,0,11.7,0
		C378.6,309.7,378.6,333.5,378.6,357.5z"/>
	<path class="st0" d="M271,321.7c3.9,0,7.8,0,11.7,0c0,11.9,0,23.8,0,35.8c-3.9,0-7.8,0-11.7,0C271,345.5,271,333.6,271,321.7z"/>
	<path class="st0" d="M319,333.6c3.9,0,7.8,0,11.7,0c0,7.9,0,15.7,0,23.8c-1.8,0.1-3.7,0-5.7,0c-2,0-4,0-6.1,0
		C319,349.6,319,341.8,319,333.6z"/>
	<path class="st0" d="M511.6,411.5c-8-0.1-13.6-2.4-18.3-7.1c-5-5.1-7.3-11.3-6.9-18.5c0.3-6.2,2.8-11.4,7.1-15.7
		c5.1-5.1,11.3-7.2,18.5-6.8c6.2,0.4,11.4,2.8,15.7,7.3c5,5.2,7,11.4,6.7,18.6c-0.2,3.8-1.5,7.1-3.1,10.3c-2,3.7-5,6.8-8.9,8.8
		C518.7,410.4,514.7,412,511.6,411.5z"/>
</g>
</svg>
