<?xml version="1.0" encoding="utf-8"?>
<!-- Generator: Adobe Illustrator 24.2.1, SVG Export Plug-In . SVG Version: 6.00 Build 0)  -->
<svg version="1.1" id="Layer_1" xmlns="http://www.w3.org/2000/svg" xmlns:xlink="http://www.w3.org/1999/xlink" x="0px" y="0px"
	 viewBox="0 0 841.9 595.3" style="enable-background:new 0 0 841.9 595.3;" xml:space="preserve">
<style type="text/css">
	.st0{fill:#FFFFFF;}
</style>
<g>
	<path class="st0" d="M229,105.3c128,0,256,0,384,0c0,128,0,256,0,384c-128,0-256,0-384,0C229,361.3,229,233.3,229,105.3z
		 M420.6,118c-51.6,0-103.3,0-154.9-0.1c-3.7,0-7.3,0.9-10.9,0.8c-0.2,0-0.5-0.1-0.7,0c-2.3,1.3-4.8,2.5-6.9,4
		c-1.3,1-2.2,2.5-3.1,3.9c-0.9,1.5-1.9,3-2.2,4.7c-0.5,2.7-0.8,5.5-0.8,8.3c0,105.3,0,210.5,0,315.8c0,2.8,0.5,5.5,0.7,8.3
		c0,0.2,0.1,0.4,0.2,0.6c1.9,3.5,3.3,7.4,7.1,9.3c1.8,1,3.6,2.3,5.6,2.7c3.1,0.6,6.3,0.8,9.4,0.8c104.5,0,209,0,313.6,0
		c3,0,6-0.5,9-0.7c0.2,0,0.5-0.1,0.7-0.2c3.4-2,7.4-3.1,9.4-7.1c0.9-1.9,2.3-3.6,2.7-5.6c0.6-2.9,0.8-6,0.8-9
		c0-104.4,0-208.8,0-313.2c0-3.3-0.5-6.5-0.7-9.8c0-0.2,0-0.5-0.1-0.7c-1.3-2.3-2.5-4.7-4-6.9c-0.8-1.1-2.1-1.9-3.4-2.7
		c-1.7-1-3.4-2.2-5.3-2.6c-2.7-0.6-5.5-0.8-8.3-0.8C525.9,118,473.2,118,420.6,118z"/>
	<path d="M420.6,118c52.6,0,105.3,0,157.9,0c2.8,0,5.6,0.2,8.3,0.8c1.9,0.4,3.6,1.6,5.3,2.6c1.2,0.7,2.6,1.5,3.4,2.7
		c1.5,2.2,2.7,4.6,4,6.9c0.1,0.2,0.1,0.5,0.1,0.7c0.3,3.3,0.7,6.5,0.7,9.8c0,104.4,0,208.8,0,313.2c0,3-0.2,6.1-0.8,9
		c-0.4,2-1.8,3.7-2.7,5.6c-1.9,3.9-6,5.1-9.4,7.1c-0.2,0.1-0.4,0.2-0.7,0.2c-3,0.3-6,0.7-9,0.7c-104.5,0-209,0-313.6,0
		c-3.1,0-6.3-0.2-9.4-0.8c-2-0.4-3.8-1.7-5.6-2.7c-3.8-2-5.2-5.9-7.1-9.3c-0.1-0.2-0.2-0.4-0.2-0.6c-0.3-2.8-0.7-5.5-0.7-8.3
		c0-105.3,0-210.5,0-315.8c0-2.8,0.3-5.6,0.8-8.3c0.3-1.6,1.3-3.2,2.2-4.7c0.9-1.4,1.8-3,3.1-3.9c2.1-1.6,4.6-2.7,6.9-4
		c0.2-0.1,0.5-0.1,0.7,0c3.7,0.1,7.2-0.8,10.9-0.8C317.3,118,369,118,420.6,118z M588.3,141.9c0-2-0.1-3.6,0-5.3
		c0.4-4.3-1.4-6.8-6.8-6.8c-107.3,0.1-214.5,0.1-321.8,0c-4.5,0-6.8,1.6-6.8,6.8c0.1,107.3,0.1,214.5,0,321.8c0,4.7,1.8,6.8,6.8,6.8
		c107.3-0.1,214.5-0.1,321.8,0c4.9,0,6.8-1.9,6.8-6.8c-0.1-100.3-0.1-200.6-0.1-300.9c0-1.2,0-2.4,0-3.9c-84,0-167.8,0-251.4,0
		c0-4.1,0-7.9,0-11.9C420.7,141.9,504.4,141.9,588.3,141.9z"/>
	<path class="st0" d="M588.3,141.9c-83.9,0-167.6,0-251.4,0c0,3.9,0,7.8,0,11.9c83.6,0,167.4,0,251.4,0c0,1.5,0,2.7,0,3.9
		c0,100.3,0,200.6,0.1,300.9c0,4.9-1.9,6.8-6.8,6.8c-107.3-0.1-214.5-0.1-321.8,0c-5,0-6.8-2.1-6.8-6.8c0.1-107.3,0.1-214.5,0-321.8
		c0-5.2,2.3-6.9,6.8-6.8c107.3,0.1,214.5,0.1,321.8,0c5.5,0,7.3,2.5,6.8,6.8C588.2,138.3,588.3,139.9,588.3,141.9z M552.3,351.5
		c-10.5,0-20.7,0-31,0c-0.1,0-0.2-0.1-0.3-0.3c0-0.1,0-0.2,0-0.3c1.2-0.3,2.5-0.5,3.7-1c1.3-0.5,2.4-1.2,3.9-1.6
		c2-0.5,4.2-4.6,3.5-6.2c-1.6-3.6-2.8-7.3-4.2-11c-1.3-3.6-2.7-7.1-4-10.7c-1.7-4.4-3.1-8.9-4.9-13.3c-0.5-1.3-1.5-2.7-0.9-4.4
		c3.9,0.4,7.6-1.3,11.4-0.7c1.7-1,3.5-0.6,5.3-0.8c0.9-0.1,1.8-0.6,2.5-1.1c0.9-0.6,1.7-1.4,2.3-2c0-1.2,0-1.9,0-2.7
		c0-2.1-0.5-3.6-2.6-4.9c-3.7-2.3-6.9-5.6-10.6-8c-5.1-3.3-9.9-6.9-14.7-10.5c-4.3-3.2-8.6-6.4-13-9.6c-3.8-2.7-7.6-5.6-11.5-8.2
		c-2.4-1.6-4.4-2.8-7.1-2.4c-2.5,2-3.6,4.5-4.3,7.6c-0.9,3.8-1.7,7.7-2.8,11.5c-0.6,2.1-1,4.3-1.5,6.5c-0.9,3.5-1.6,7.1-2.5,10.6
		c-0.8,3.3-1.8,6.7-2.6,10.1c-1.6,6.7-3.4,13.4-4.6,20.2c-1.4,1.8-0.3,3.2,0.6,4.8c1.6,2.8,3.6,3.4,6.7,2c3.5-1.5,6.3-4,9.5-6
		c2-1.2,3.8-2.7,6-4.2c2.3,6.3,4.4,12.2,6.6,18.2c2.1,6,4.8,11.9,6.6,18.1c-69.8,0-139.2,0-208.7,0c0-8,0-15.9,0-24
		c53.9,0,107.6,0,161.5,0c0-2.1,0-4.1,0-6.1c0-1.9,0.2-3.9-0.1-5.8c-47.8,0-95.3-0.1-142.9,0c-9.1,0-18.3-0.8-27.2,0.7
		c-2.8,1.9-3.4,4.7-3.5,7.6c-0.1,10.4-0.1,20.7,0,31.1c0,2.9,0.6,5.8,3.4,7.7c7.1,1.5,14.5,0.7,21.9,0.7c73.3,0.1,146.7,0,220,0
		c6.5,0,13,0.1,19.5,0c6.4-0.1,12.8,0.7,19.2-0.8c0.8-0.8,1.7-1.7,2.2-2.1c1.7-5,1-9.7,1.1-14.3c0.1-5.2,0-10.5,0-15.7
		c0-2.4,0.2-4.8-0.1-7.1c-0.3-2.2-0.4-4.5-2.3-6.1c-1.5-1.3-3.4-1.4-5-1.5c-5.4-0.3-10.9-0.1-16.4-0.1c0,4.1,0,8,0,12.1
		c4,0,7.8,0,11.7,0C552.3,335.6,552.3,343.5,552.3,351.5z M280.5,452.8c2.8,0.2,5.7,0.5,8.6,0.5c69.5,0,138.9,0,208.4,0
		c18.8,0,37.7,0,56.5,0c2.2,0,4.3-0.3,6.4-0.8c1.6-0.4,2.8-1.6,3.2-3.2c0.5-2.1,0.9-4.2,0.9-6.4c-0.1-9.4-0.1-18.7,0-28.1
		c0-2-0.6-3.8-0.9-5.7c-0.3-1.5-1.6-2.7-3.2-3.1c-1-0.3-2-0.6-3.1-0.7c-1.2-0.1-2.5,0-3.7,0c-5.7,0-11.5,0-17.2,0
		c-83.3,0-166.6,0-249.9,0c-2,0-4.1,0.2-6,0.8c-1,0.3-1.7,1.7-2.6,2.6c-0.3,1.4-0.8,2.9-0.8,4.5c-0.1,6.1-0.1,12.2,0,18.3
		c0.1,6.1-0.7,12.3,0.9,18.5C278.5,450.8,279.3,451.6,280.5,452.8z M534.5,273.7c7.5,0,15,0,22.5,0c1.3,0,2.7-0.2,3.8-0.8
		c1.2-0.7,2.4-1.9,2.8-3.1c0.7-2,0.9-4.2,0.9-6.4c-0.1-9.4-0.1-18.7,0-28.1c0-2-0.5-3.8-0.9-5.6c-0.3-1.2-1.7-2.7-2.9-3
		c-1.9-0.4-3.9-1-6-1c-81.7,0.1-163.4,0.1-245.1,0.1c-4.9,0-9.7-0.1-14.6,0c-4.9,0.1-9.8-0.6-14.9,1c-2.3,1.6-3,4.4-3,7.3
		c-0.1,10.4-0.1,20.7,0,31.1c0,1.6,0.2,3.4,0.8,4.9c0.5,1.2,1.6,2.5,3.1,2.8c2.1,0.5,4.2,0.8,6.4,0.8c57.1,0,114.3,0,171.4,0
		c1.2,0,2.4,0,3.7,0c0-4.1,0-8,0-12.1c-57.9,0-115.6,0-173.5,0c0-7.8,0-15.5,0-23.3c0-0.1,0.1-0.2,0.1-0.3c0.1-0.1,0.2-0.2,0.1-0.1
		c87.8,0,175.4,0,263.2,0c0,7.8,0,15.5,0,23.3c0,0.1-0.1,0.2-0.1,0.3c-0.1,0.1-0.2,0.2-0.4,0.4c-5.7,0-11.5,0-17.3,0
		C534.5,265.8,534.5,269.7,534.5,273.7z M486.4,178c-43.9,0-87.7,0-131.6,0c0,4,0,7.8,0,11.7c43.9,0,87.7,0,131.6,0
		C486.4,185.8,486.4,181.9,486.4,178z M277,291.7c0,4.2,0,8,0,11.8c13.3,0.5,80.4,0.3,83.6-0.2c0-3.9,0-7.7,0-11.6
		C332.7,291.7,304.9,291.7,277,291.7z M277,393.3c28.1,0,55.9,0,83.8,0c0-2.1,0-4.1,0-6c0-1.9,0.2-3.9-0.1-5.7
		c-28.1,0-55.8,0-83.7,0C277,385.5,277,389.4,277,393.3z M277,213.7c18.1,0,35.9,0,53.8,0c0-2.1,0-4.1,0-6.1c0-1.9,0.1-3.9,0-5.7
		c-18.1,0-35.9,0-53.8,0C277,205.9,277,209.7,277,213.7z M265,153.8c4.2,0,8,0,11.9,0c0-2.1,0-4.1,0-6.1c0-1.9,0.1-3.9,0-5.7
		c-4.2,0-8,0-11.9,0C265,146,265,149.9,265,153.8z M300.8,142.1c-4.2,0-8,0-11.9,0c0,2.1,0,4.1,0,6.1c0,1.9-0.1,3.9,0,5.7
		c4.2,0,8,0,11.9,0C300.8,149.8,300.8,146,300.8,142.1z M313,142c0,4.1,0,8,0,11.9c2.1,0,4.1,0,6,0c1.9,0,3.9,0.2,5.7-0.1
		c0-4.1,0-7.9,0-11.8C320.7,142,316.9,142,313,142z"/>
	<path d="M552.3,351.5c0-8.1,0-15.9,0-23.9c-3.9,0-7.7,0-11.7,0c0-4,0-8,0-12.1c5.5,0,11-0.2,16.4,0.1c1.6,0.1,3.5,0.2,5,1.5
		c2,1.7,2.1,4,2.3,6.1c0.3,2.3,0.1,4.7,0.1,7.1c0,5.2,0.1,10.5,0,15.7c-0.1,4.6,0.6,9.3-1.1,14.3c-0.5,0.5-1.4,1.4-2.2,2.1
		c-6.4,1.5-12.8,0.7-19.2,0.8c-6.5,0.1-13,0-19.5,0c-73.3,0-146.7,0-220,0c-7.4,0-14.8,0.8-21.9-0.7c-2.9-1.9-3.4-4.8-3.4-7.7
		c-0.1-10.4-0.1-20.7,0-31.1c0-2.9,0.7-5.7,3.5-7.6c8.9-1.5,18.1-0.7,27.2-0.7c47.5-0.1,95.1,0,142.9,0c0.3,1.9,0.1,3.9,0.1,5.8
		c0,2,0,4,0,6.1c-53.9,0-107.6,0-161.5,0c0,8,0,15.9,0,24c69.5,0,138.9,0,208.7,0c-1.8-6.2-4.4-12-6.6-18.1
		c-2.1-6-4.3-11.9-6.6-18.2c-2.2,1.5-4,2.9-6,4.2c-3.2,2-6,4.5-9.5,6c-3.1,1.4-5.1,0.8-6.7-2c-0.9-1.6-2-3-0.6-4.8
		c1.3-6.8,3-13.5,4.6-20.2c0.8-3.3,1.8-6.7,2.6-10.1c0.9-3.5,1.6-7.1,2.5-10.6c0.5-2.2,0.9-4.4,1.5-6.5c1.1-3.8,1.9-7.7,2.8-11.5
		c0.7-3.1,1.8-5.6,4.3-7.6c2.7-0.5,4.8,0.8,7.1,2.4c3.9,2.6,7.7,5.5,11.5,8.2c4.3,3.1,8.7,6.3,13,9.6c4.8,3.6,9.6,7.2,14.7,10.5
		c3.7,2.4,6.8,5.7,10.6,8c2.1,1.3,2.6,2.8,2.6,4.9c0,0.7,0,1.5,0,2.7c-0.6,0.5-1.4,1.4-2.3,2c-0.8,0.5-1.7,1-2.5,1.1
		c-1.8,0.2-3.6-0.2-5.3,0.8c-3.8-0.6-7.5,1.1-11.4,0.7c-0.7,1.7,0.3,3.1,0.9,4.4c1.8,4.4,3.3,8.9,4.9,13.3c1.3,3.6,2.7,7.1,4,10.7
		c1.4,3.7,2.5,7.4,4.2,11c0.7,1.6-1.4,5.7-3.5,6.2c-1.4,0.4-2.6,1.1-3.9,1.6c-1.2,0.5-2.5,0.7-3.7,1c0,0.1-0.1,0.2,0,0.3
		c0.1,0.1,0.2,0.2,0.3,0.3C531.5,351.5,541.8,351.5,552.3,351.5z M485.2,267.7c-1,4.7-2,9.1-3.1,13.5c-1.1,4.3-2.4,8.6-3.1,12.9
		c-0.7,4.4-2.4,8.7-3,13.4c2.9-2,5.4-3.7,7.9-5.5c1.2-0.9,2.6-1.4,3.8-1.2c2.6,0.4,4.6,2.2,5.4,4.7c0.6,2.1,1.6,4.1,2.3,6.2
		c2.5,8.2,5.9,16,8.7,24.1c0.9,2.7,2,5.4,3.1,8.3c4-0.7,7.6-2.7,11.6-4c-0.1-0.9,0-1.9-0.4-2.6c-2.6-5.3-4.3-11-6.3-16.5
		c-2.5-6.7-5-13.4-7.2-20.2c-0.7-2.2-0.4-4,0.4-5.8c0.6-1.4,3.3-2.7,5.3-2.5c2.8,0.2,5.5-0.4,8.4-1.2c-10.9-7.9-21.6-15.7-32.4-23.5
		C486.3,267.6,485.8,267.7,485.2,267.7z"/>
	<path d="M280.5,452.8c-1.2-1.2-2-2-2.6-2.6c-1.7-6.2-0.8-12.4-0.9-18.5c-0.1-6.1-0.1-12.2,0-18.3c0-1.5,0.6-3,0.8-4.5
		c0.8-0.9,1.5-2.3,2.6-2.6c1.9-0.6,4-0.8,6-0.8c83.3,0,166.6,0,249.9,0c5.7,0,11.5,0,17.2,0c1.2,0,2.5-0.1,3.7,0
		c1,0.1,2,0.5,3.1,0.7c1.7,0.4,3,1.6,3.2,3.1c0.3,1.9,0.9,3.7,0.9,5.7c-0.2,9.4-0.1,18.7,0,28.1c0,2.2-0.4,4.3-0.9,6.4
		c-0.4,1.6-1.6,2.7-3.2,3.2c-2.1,0.5-4.2,0.8-6.4,0.8c-18.8-0.1-37.7,0-56.5,0c-69.5,0-138.9,0-208.4,0
		C286.2,453.3,283.3,453,280.5,452.8z M289,441.2c87.8,0,175.6,0,263.3,0c0-8,0-15.8,0-23.7c-87.8,0-175.6,0-263.3,0
		C289,425.5,289,433.3,289,441.2z"/>
	<path d="M534.5,273.7c0-4,0-7.9,0-11.8c5.8,0,11.7,0,17.3,0c0.2-0.2,0.4-0.3,0.4-0.4c0.1-0.1,0.1-0.2,0.1-0.3c0-7.7,0-15.4,0-23.3
		c-87.8,0-175.4,0-263.2,0c0,0-0.1,0-0.1,0.1c-0.1,0.1-0.1,0.2-0.1,0.3c0,7.7,0,15.4,0,23.3c57.9,0,115.6,0,173.5,0c0,4,0,8,0,12.1
		c-1.2,0-2.4,0-3.7,0c-57.1,0-114.3,0-171.4,0c-2.2,0-4.3-0.3-6.4-0.8c-1.6-0.3-2.6-1.6-3.1-2.8c-0.6-1.5-0.8-3.2-0.8-4.9
		c-0.1-10.4-0.1-20.7,0-31.1c0-3,0.7-5.7,3-7.3c5.1-1.6,10-1,14.9-1c4.9-0.1,9.7,0,14.6,0c81.7,0,163.4,0,245.1-0.1
		c2.1,0,4.1,0.5,6,1c1.2,0.3,2.6,1.8,2.9,3c0.4,1.8,1,3.7,0.9,5.6c-0.1,9.4-0.1,18.7,0,28.1c0,2.2-0.2,4.4-0.9,6.4
		c-0.4,1.2-1.6,2.4-2.8,3.1c-1,0.6-2.5,0.8-3.8,0.8C549.5,273.7,542,273.7,534.5,273.7z"/>
	<path d="M486.4,178c0,3.9,0,7.8,0,11.7c-43.9,0-87.7,0-131.6,0c0-3.9,0-7.8,0-11.7C398.7,178,442.5,178,486.4,178z"/>
	<path d="M277,291.7c27.9,0,55.7,0,83.6,0c0,3.9,0,7.7,0,11.6c-3.2,0.5-70.3,0.8-83.6,0.2C277,299.7,277,295.9,277,291.7z"/>
	<path d="M277,393.3c0-4,0-7.8,0-11.7c27.8,0,55.6,0,83.7,0c0.2,1.8,0.1,3.8,0.1,5.7c0,2,0,4,0,6C332.8,393.3,305.1,393.3,277,393.3
		z"/>
	<path d="M277,213.7c0-3.9,0-7.8,0-11.7c17.8,0,35.6,0,53.8,0c0.1,1.8,0,3.7,0,5.7c0,2,0,4,0,6.1C312.9,213.7,295.1,213.7,277,213.7
		z"/>
	<path d="M265,153.8c0-3.9,0-7.8,0-11.7c3.9,0,7.7,0,11.9,0c0.1,1.8,0,3.7,0,5.7c0,2,0,4,0,6.1C273,153.8,269.1,153.8,265,153.8z"/>
	<path d="M300.8,142.1c0,3.9,0,7.8,0,11.7c-3.9,0-7.7,0-11.9,0c-0.1-1.8,0-3.7,0-5.7c0-2,0-4,0-6.1
		C292.8,142.1,296.6,142.1,300.8,142.1z"/>
	<path d="M313,142c4,0,7.8,0,11.7,0c0,3.9,0,7.7,0,11.8c-1.8,0.2-3.7,0.1-5.7,0.1c-2,0-3.9,0-6,0C313,150,313,146.2,313,142z"/>
	<path class="st0" d="M485.2,267.7c0.6,0,1-0.2,1.3,0c10.8,7.8,21.5,15.6,32.4,23.5c-2.9,0.8-5.6,1.4-8.4,1.2
		c-2-0.1-4.6,1.2-5.3,2.5c-0.8,1.8-1.1,3.7-0.4,5.8c2.2,6.8,4.8,13.5,7.2,20.2c2,5.5,3.7,11.2,6.3,16.5c0.3,0.7,0.3,1.6,0.4,2.6
		c-4,1.3-7.7,3.3-11.6,4c-1.1-2.9-2.2-5.6-3.1-8.3c-2.7-8.1-6.2-15.9-8.7-24.1c-0.6-2.1-1.6-4-2.3-6.2c-0.7-2.4-2.8-4.2-5.4-4.7
		c-1.2-0.2-2.7,0.3-3.8,1.2c-2.5,1.8-5,3.5-7.9,5.5c0.6-4.7,2.3-9,3-13.4c0.7-4.4,2-8.6,3.1-12.9
		C483.2,276.8,484.2,272.4,485.2,267.7z"/>
	<path class="st0" d="M289,441.2c0-7.9,0-15.7,0-23.7c87.8,0,175.5,0,263.3,0c0,7.9,0,15.7,0,23.7
		C464.5,441.2,376.8,441.2,289,441.2z"/>
</g>
</svg>
